# xmcd
# 
# Track frame offsets:
#     183
#     13423
#     25688
#     36610
#     46943
#     57773
#     68998
#     80743
#     93668
#     108198
#     120350
#     131748
#     145390
#     158803
#     169333
#     180843
# 
# Disc length: 2716
# 
# Revision: 4
# Processed by: cddbd v1.5.2PL0 Copyright (c) Steve Scherf et al.
# Submitted via: BonkEnc v1.0beta4
# 
DISCID=db0a9a10
DTITLE=Various Artist - Rhythm and Blues
DYEAR=0
DGENRE=
TTITLE0=Ben E. King/Stand by me
TTITLE1=Otis Redding/(Sittin' on) The dock of the bay
TTITLE2=Wilson Pickett/In the midnight hour
TTITLE3=Aretha Franklin/Think
TTITLE4=Aretha Franklin/Respect
TTITLE5=Otis Redding/These arms of mine
TTITLE6=Sam and Dave/Soul man
TTITLE7=Percy Sledge/When a man love a woman
TTITLE8=Otis Redding/I've been loving you too long
TTITLE9=The Drifters/Under the boardwalk
TTITLE10=Sam and Dave/Hold on, i'm coming
TTITLE11=King Floyd/Groove me
TTITLE12=Aretha Franklin/Don't play that song (you lied)
TTITLE13=Arthur Conley/Sweet soul music
TTITLE14=Ray Charles/Hallelujah, i love her so
TTITLE15=Ray Charles/What'd i say
EXTD=
EXTT0=
EXTT1=
EXTT2=
EXTT3=
EXTT4=
EXTT5=
EXTT6=
EXTT7=
EXTT8=
EXTT9=
EXTT10=
EXTT11=
EXTT12=
EXTT13=
EXTT14=
EXTT15=
PLAYORDER=
